<svg width="38" height="33" viewBox="0 0 38 33" fill="none" xmlns="http://www.w3.org/2000/svg">
<g clip-path="url(#clip0_120_226)">
<path d="M9.90645 9.33281C10.3512 10.3834 11.2342 11.3438 12.375 11.3438H24.75C25.8908 11.3438 26.7738 10.3834 27.2186 9.33281C27.9984 7.48301 29.8354 6.1875 31.9688 6.1875C34.8176 6.1875 37.125 8.49492 37.125 11.3438C37.125 13.3031 36.0293 15.0111 34.418 15.8812C34.1859 16.0037 34.0312 16.2357 34.0312 16.5C34.0312 16.7643 34.1859 16.9963 34.418 17.1188C36.0293 17.9889 37.125 19.6969 37.125 21.6562C37.125 24.5051 34.8176 26.8125 31.9688 26.8125C29.8354 26.8125 27.9984 25.517 27.2186 23.6672C26.7738 22.6166 25.8908 21.6562 24.75 21.6562H12.375C11.2342 21.6562 10.3512 22.6166 9.90645 23.6672C9.12656 25.517 7.28965 26.8125 5.15625 26.8125C2.30742 26.8125 0 24.5051 0 21.6562C0 19.6969 1.0957 17.9889 2.70703 17.1188C2.93906 16.9963 3.09375 16.7643 3.09375 16.5C3.09375 16.2357 2.93906 16.0037 2.70703 15.8812C1.0957 15.0111 0 13.3031 0 11.3438C0 8.49492 2.30742 6.1875 5.15625 6.1875C7.28965 6.1875 9.12656 7.48301 9.90645 9.33281Z" fill="#003450" fill-opacity="0.47"/>
</g>
<defs>
<clipPath id="clip0_120_226">
<rect width="37.125" height="33" fill="white"/>
</clipPath>
</defs>
</svg>
