<svg width="33" height="33" viewBox="0 0 33 33" fill="none" xmlns="http://www.w3.org/2000/svg">
<path d="M2.85697 0.127441C2.14447 0.309057 1.6555 0.602437 1.11065 1.16126C-0.370218 2.64213 -0.370218 4.96123 1.11065 6.45607C1.7533 7.11269 2.39594 7.42004 3.3599 7.55974L3.84887 7.62959L3.8349 8.6215C3.80696 9.78105 3.91872 10.5774 4.2121 11.5274C4.61725 12.7707 5.27386 13.9163 6.11209 14.8244L6.54517 15.2854H6.12606C5.90253 15.2854 5.55327 15.3273 5.37165 15.3692C5.07827 15.4531 4.99445 15.4391 4.72901 15.3692C4.3099 15.2295 3.29005 15.2435 2.81505 15.3832C1.7533 15.6906 0.859185 16.417 0.412129 17.3531C0.104779 17.9957 0.00698507 18.4008 0.00698507 19.0714C0.00698507 20.1192 0.356247 20.9295 1.12462 21.6979C1.69741 22.2707 2.20035 22.564 2.88491 22.7177L3.29005 22.8015L3.69519 22.4523C4.18416 22.0192 5.10621 21.5442 5.70694 21.4324C7.27164 21.0971 8.80839 21.6141 9.99588 22.8574C10.4988 23.3883 10.7503 23.7515 11.0856 24.4221C12.0775 26.4059 12.1054 28.9625 11.1694 31.0581C11.0018 31.4493 10.429 32.3294 10.0797 32.7206L9.84221 33H13.3767H16.9113L16.59 32.6647C15.3047 31.2956 14.6341 29.0184 14.8995 26.8809C15.1789 24.6037 16.4083 22.6618 18.0848 21.8096C18.923 21.3905 20.0407 21.2368 20.9487 21.4324C21.4237 21.5302 22.2061 21.8655 22.5554 22.117L22.737 22.2427L23.212 22.0052C23.8406 21.6979 24.5112 21.0273 24.8325 20.3986C25.6149 18.9038 25.3355 17.1575 24.134 15.956C23.1002 14.9222 21.6193 14.5869 20.2921 15.0619C19.9708 15.1737 19.6495 15.2435 19.2863 15.2575L18.7414 15.2854L19.1745 14.8104C20.3061 13.581 21.0885 11.9744 21.3679 10.27C21.4517 9.78105 21.4657 9.34796 21.4517 8.6215L21.4237 7.62959L21.8289 7.58768C22.737 7.48989 23.5053 7.11268 24.148 6.47004C25.5869 5.01711 25.6149 2.75389 24.2318 1.25905C23.0723 0.0156767 21.312 -0.305645 19.7892 0.434791C19.3142 0.67229 18.6436 1.24508 18.3363 1.69214L18.1407 1.97155L17.6377 1.62228C16.9951 1.17523 15.8355 0.616408 15.1091 0.40685C13.4885 -0.0541758 11.7282 -0.0541758 10.1076 0.40685C9.40912 0.560526 8.24957 1.11935 7.60693 1.5664L7.10399 1.91566L6.90841 1.63625C6.60106 1.20317 5.97238 0.644349 5.46945 0.39288C4.64519 -0.0122643 3.73711 -0.110058 2.85697 0.127441ZM12.1893 10.1862C11.7562 10.3958 11.4768 10.7171 11.379 11.1781C11.2812 11.6531 11.6165 12.2818 12.0775 12.4913C12.8179 12.8266 13.6422 12.4354 13.8517 11.6671C14.0054 11.0803 13.6422 10.3678 13.0973 10.1862C12.804 10.1024 12.9995 10.1024 13.4187 10.1862C14.7179 10.4516 15.8216 11.4575 16.2407 12.7428C16.4223 13.3016 16.4503 14.2935 16.3105 14.8244C15.8355 16.5288 14.3826 17.6464 12.6363 17.6464C10.89 17.6464 9.43706 16.5288 8.96207 14.8244C8.80839 14.2935 8.8503 13.3016 9.03192 12.7428C9.43706 11.4854 10.5547 10.4656 11.812 10.2002C12.315 10.1024 12.3988 10.0884 12.1893 10.1862Z" fill="#003450" fill-opacity="0.47"/>
<path d="M5.95827 22.8161C5.38548 22.9558 4.91049 23.2352 4.39358 23.7521C3.70902 24.4506 3.33182 25.1212 3.02447 26.2528C2.91271 26.658 2.88477 26.9374 2.88477 27.7477C2.88477 28.9771 3.0105 29.5778 3.49947 30.5697C3.77888 31.1425 3.90461 31.3102 4.35167 31.7572C4.92446 32.33 5.31563 32.5815 5.91636 32.7351C6.93621 33.0006 7.95605 32.7212 8.80825 31.9388C10.6803 30.2065 11.0016 26.7418 9.49281 24.4506C8.61267 23.1374 7.25753 22.5087 5.95827 22.8161Z" fill="#003450" fill-opacity="0.47"/>
<path d="M19.3418 22.8291C18.5175 23.0527 17.791 23.5975 17.2462 24.4218C16.5616 25.4416 16.2822 26.4335 16.2822 27.8166C16.2822 28.4872 16.3102 28.8085 16.4219 29.2556C17.0366 31.7703 18.8668 33.2372 20.7807 32.7342C21.3675 32.5806 21.7726 32.3291 22.3314 31.7703C22.9461 31.1556 23.3653 30.4012 23.6307 29.4372C23.7844 28.8923 23.7983 28.6828 23.7983 27.8166C23.7983 26.5872 23.6726 25.9725 23.1836 24.9806C22.9042 24.4078 22.7645 24.2262 22.3314 23.7931C21.4234 22.885 20.3895 22.5497 19.3418 22.8291Z" fill="#003450" fill-opacity="0.47"/>
</svg>
