<svg width="33" height="33" viewBox="0 0 33 33" fill="none" xmlns="http://www.w3.org/2000/svg">
<g clip-path="url(#clip0_122_239)">
<path d="M14.9515 0.0634766C11.2599 0.407722 7.6562 1.99673 4.82404 4.82729C1.99187 7.65703 0.404474 11.2607 0.0610352 14.9571C4.11459 15.4271 8.42451 17.4991 11.9629 21.0375C15.5029 24.5767 17.5772 28.8898 18.0432 32.9401C21.7453 32.5967 25.3401 31.0085 28.1747 28.1795C31.006 25.3506 32.5918 21.7453 32.9337 18.0497C28.8898 17.5805 24.5726 15.5086 21.0342 11.9694C17.4982 8.43098 15.4239 4.11703 14.9515 0.0634766Z" fill="#003450" fill-opacity="0.47"/>
<path d="M32.9999 16.003C32.8798 11.9438 31.2738 7.92248 28.1797 4.82427C25.0839 1.72606 21.0577 0.125766 16.9985 0C17.4548 3.54484 19.3373 7.35411 22.4928 10.5104C25.6482 13.6666 29.4526 15.5459 32.9999 16.003Z" fill="#003450" fill-opacity="0.47"/>
<path d="M0.000488281 17.0029C0.119805 21.0605 1.72655 25.0826 4.82396 28.1792C7.91894 31.2742 11.9402 32.8826 15.9986 33.0003C15.5423 29.4603 13.6623 25.6534 10.5052 22.4972C7.35138 19.3425 3.54291 17.4625 0.000488281 17.0029Z" fill="#003450" fill-opacity="0.47"/>
</g>
<defs>
<clipPath id="clip0_122_239">
<rect width="33" height="33" fill="white"/>
</clipPath>
</defs>
</svg>
