<svg width="33" height="33" viewBox="0 0 33 33" fill="none" xmlns="http://www.w3.org/2000/svg">
<path d="M17.3637 0.186914C17.093 0.0644531 16.803 0 16.5 0C16.1971 0 15.9071 0.0644531 15.6364 0.186914L3.49983 5.33672C2.08187 5.93613 1.02483 7.33477 1.03128 9.02344C1.06351 15.4172 3.69319 27.1154 14.7985 32.4328C15.8748 32.9484 17.1252 32.9484 18.2016 32.4328C29.3069 27.1154 31.9366 15.4172 31.9688 9.02344C31.9752 7.33477 30.9182 5.93613 29.5002 5.33672L17.3637 0.186914ZM10.3705 18.4465C10.6799 18.5238 11.0086 18.5625 11.3438 18.5625C13.619 18.5625 15.4688 16.7127 15.4688 14.4375V10.3125H18.3176C19.0975 10.3125 19.8129 10.7508 20.161 11.4533L20.625 12.375H24.75C25.3172 12.375 25.7813 12.8391 25.7813 13.4062V15.4688C25.7813 18.3176 23.4739 20.625 20.625 20.625H17.5313V23.8928C17.5313 24.3633 17.151 24.75 16.6741 24.75C16.558 24.75 16.442 24.7242 16.3389 24.6791L9.97737 21.9527C9.55198 21.7723 9.28128 21.3533 9.28128 20.8957C9.28128 20.7152 9.31995 20.5412 9.40374 20.3801L10.3705 18.4465ZM10.3125 10.3125H12.8907H13.4063V12.375V14.4375C13.4063 15.5783 12.4846 16.5 11.3438 16.5C10.203 16.5 9.28128 15.5783 9.28128 14.4375V11.3438C9.28128 10.7766 9.74534 10.3125 10.3125 10.3125ZM18.5625 13.4062C18.5625 13.1327 18.4539 12.8704 18.2605 12.677C18.0671 12.4836 17.8048 12.375 17.5313 12.375C17.2578 12.375 16.9955 12.4836 16.8021 12.677C16.6087 12.8704 16.5 13.1327 16.5 13.4062C16.5 13.6798 16.6087 13.9421 16.8021 14.1355C16.9955 14.3289 17.2578 14.4375 17.5313 14.4375C17.8048 14.4375 18.0671 14.3289 18.2605 14.1355C18.4539 13.9421 18.5625 13.6798 18.5625 13.4062Z" fill="#003450" fill-opacity="0.47"/>
</svg>
