<svg width="33" height="33" viewBox="0 0 33 33" fill="none" xmlns="http://www.w3.org/2000/svg">
<path d="M0 12.375C0 10.0998 1.8498 8.25 4.125 8.25C4.15723 8.25 4.1959 8.25 4.22813 8.25C4.70508 5.89746 6.78691 4.125 9.28125 4.125C10.248 4.125 11.1504 4.38926 11.9174 4.84687C12.7746 3.19687 14.5084 2.0625 16.5 2.0625C18.4916 2.0625 20.2254 3.19687 21.0826 4.84687C21.8496 4.38926 22.752 4.125 23.7188 4.125C26.2131 4.125 28.2949 5.89746 28.7719 8.25C28.8041 8.25 28.8428 8.25 28.875 8.25C31.1502 8.25 33 10.0998 33 12.375C33 13.1291 32.8002 13.8316 32.4457 14.4375H0.554297C0.199805 13.8316 0 13.1291 0 12.375ZM0 18.266C0 17.2928 0.792773 16.5 1.76602 16.5H31.2275C32.2008 16.5 32.9936 17.2928 32.9936 18.266C32.9936 22.81 30.1318 26.69 26.1164 28.1982L26.0068 29.1328C25.8779 30.1641 25.0014 30.9375 23.9572 30.9375H9.03633C7.99863 30.9375 7.11562 30.1641 6.98672 29.1328L6.8707 28.2047C2.86172 26.69 0 22.81 0 18.266Z" fill="#003450" fill-opacity="0.47"/>
</svg>
