<svg width="33" height="33" viewBox="0 0 33 33" fill="none" xmlns="http://www.w3.org/2000/svg">
<g clip-path="url(#clip0_115_11)">
<path d="M18.5624 2.0625C18.5624 0.92168 17.6407 0 16.4999 0C15.359 0 14.4374 0.92168 14.4374 2.0625V15.4688C14.4374 16.0359 13.9733 16.5 13.4061 16.5C12.8389 16.5 12.3749 16.0359 12.3749 15.4688V4.125C12.3749 2.98418 11.4532 2.0625 10.3124 2.0625C9.17153 2.0625 8.24985 2.98418 8.24985 4.125V21.6562C8.24985 21.7529 8.24985 21.8561 8.2563 21.9527L4.35688 18.2402C3.32563 17.2605 1.69497 17.2992 0.708835 18.3305C-0.277298 19.3617 -0.232181 20.9924 0.799069 21.9785L8.0436 28.875C10.8215 31.524 14.5147 33 18.3561 33H19.5936C25.8584 33 30.9374 27.9211 30.9374 21.6562V8.25C30.9374 7.10918 30.0157 6.1875 28.8749 6.1875C27.734 6.1875 26.8124 7.10918 26.8124 8.25V15.4688C26.8124 16.0359 26.3483 16.5 25.7811 16.5C25.2139 16.5 24.7499 16.0359 24.7499 15.4688V4.125C24.7499 2.98418 23.8282 2.0625 22.6874 2.0625C21.5465 2.0625 20.6249 2.98418 20.6249 4.125V15.4688C20.6249 16.0359 20.1608 16.5 19.5936 16.5C19.0264 16.5 18.5624 16.0359 18.5624 15.4688V2.0625ZM15.4686 21.6562C15.4686 21.3827 15.5772 21.1204 15.7706 20.927C15.964 20.7336 16.2263 20.625 16.4999 20.625C16.7734 20.625 17.0357 20.7336 17.2291 20.927C17.4225 21.1204 17.5311 21.3827 17.5311 21.6562C17.5311 21.9298 17.4225 22.1921 17.2291 22.3855C17.0357 22.5789 16.7734 22.6875 16.4999 22.6875C16.2263 22.6875 15.964 22.5789 15.7706 22.3855C15.5772 22.1921 15.4686 21.9298 15.4686 21.6562ZM20.6249 22.6875C20.8984 22.6875 21.1607 22.7961 21.3541 22.9895C21.5475 23.1829 21.6561 23.4452 21.6561 23.7188C21.6561 23.9923 21.5475 24.2546 21.3541 24.448C21.1607 24.6414 20.8984 24.75 20.6249 24.75C20.3513 24.75 20.089 24.6414 19.8956 24.448C19.7022 24.2546 19.5936 23.9923 19.5936 23.7188C19.5936 23.4452 19.7022 23.1829 19.8956 22.9895C20.089 22.7961 20.3513 22.6875 20.6249 22.6875ZM23.7186 21.6562C23.7186 21.3827 23.8272 21.1204 24.0206 20.927C24.214 20.7336 24.4763 20.625 24.7499 20.625C25.0234 20.625 25.2857 20.7336 25.4791 20.927C25.6725 21.1204 25.7811 21.3827 25.7811 21.6562C25.7811 21.9298 25.6725 22.1921 25.4791 22.3855C25.2857 22.5789 25.0234 22.6875 24.7499 22.6875C24.4763 22.6875 24.214 22.5789 24.0206 22.3855C23.8272 22.1921 23.7186 21.9298 23.7186 21.6562ZM22.6874 26.8125C22.9609 26.8125 23.2232 26.9211 23.4166 27.1145C23.61 27.3079 23.7186 27.5702 23.7186 27.8438C23.7186 28.1173 23.61 28.3796 23.4166 28.573C23.2232 28.7664 22.9609 28.875 22.6874 28.875C22.4138 28.875 22.1515 28.7664 21.9581 28.573C21.7647 28.3796 21.6561 28.1173 21.6561 27.8438C21.6561 27.5702 21.7647 27.3079 21.9581 27.1145C22.1515 26.9211 22.4138 26.8125 22.6874 26.8125ZM15.4686 27.8438C15.4686 27.5702 15.5772 27.3079 15.7706 27.1145C15.964 26.9211 16.2263 26.8125 16.4999 26.8125C16.7734 26.8125 17.0357 26.9211 17.2291 27.1145C17.4225 27.3079 17.5311 27.5702 17.5311 27.8438C17.5311 28.1173 17.4225 28.3796 17.2291 28.573C17.0357 28.7664 16.7734 28.875 16.4999 28.875C16.2263 28.875 15.964 28.7664 15.7706 28.573C15.5772 28.3796 15.4686 28.1173 15.4686 27.8438ZM12.3749 24.75C12.6484 24.75 12.9107 24.8586 13.1041 25.052C13.2975 25.2454 13.4061 25.5077 13.4061 25.7812C13.4061 26.0548 13.2975 26.3171 13.1041 26.5105C12.9107 26.7039 12.6484 26.8125 12.3749 26.8125C12.1013 26.8125 11.839 26.7039 11.6456 26.5105C11.4522 26.3171 11.3436 26.0548 11.3436 25.7812C11.3436 25.5077 11.4522 25.2454 11.6456 25.052C11.839 24.8586 12.1013 24.75 12.3749 24.75Z" fill="#003450" fill-opacity="0.47"/>
</g>
<defs>
<clipPath id="clip0_115_11">
<rect width="33" height="33" fill="white"/>
</clipPath>
</defs>
</svg>
