<svg width="38" height="33" viewBox="0 0 38 33" fill="none" xmlns="http://www.w3.org/2000/svg">
<g clip-path="url(#clip0_115_2)">
<path d="M9.17812 1.41155C9.53906 2.49436 8.95254 3.66096 7.87617 4.0219L6.1875 4.58264V12.375C6.1875 15.791 8.95898 18.5625 12.375 18.5625C15.791 18.5625 18.5625 15.791 18.5625 12.375V4.58264L16.8803 4.0219C15.7975 3.66096 15.2174 2.49436 15.5783 1.41155C15.9393 0.328733 17.1059 -0.251345 18.1887 0.109592L19.8709 0.670334C21.5531 1.23108 22.6875 2.80373 22.6875 4.58264V12.375C22.6875 17.3508 19.1684 21.5016 14.4826 22.4748C14.8887 26.0778 17.9438 28.875 21.6562 28.875C25.6459 28.875 28.875 25.6459 28.875 21.6563V17.0994C27.051 16.3067 25.7812 14.4891 25.7812 12.375C25.7812 9.52619 28.0887 7.21877 30.9375 7.21877C33.7863 7.21877 36.0938 9.52619 36.0938 12.375C36.0938 14.4891 34.824 16.3067 33 17.0994V21.6563C33 27.9211 27.9211 33 21.6562 33C15.6686 33 10.7701 28.3658 10.3447 22.4877C5.62031 21.5403 2.0625 17.3766 2.0625 12.375V4.58264C2.0625 2.81018 3.19688 1.23108 4.88555 0.670334L6.56777 0.109592C7.65059 -0.251345 8.81719 0.335178 9.17812 1.41155ZM30.9375 14.4375C31.4845 14.4375 32.0091 14.2202 32.3959 13.8334C32.7827 13.4466 33 12.922 33 12.375C33 11.828 32.7827 11.3034 32.3959 10.9166C32.0091 10.5298 31.4845 10.3125 30.9375 10.3125C30.3905 10.3125 29.8659 10.5298 29.4791 10.9166C29.0923 11.3034 28.875 11.828 28.875 12.375C28.875 12.922 29.0923 13.4466 29.4791 13.8334C29.8659 14.2202 30.3905 14.4375 30.9375 14.4375Z" fill="#003450" fill-opacity="0.47"/>
</g>
<defs>
<clipPath id="clip0_115_2">
<rect width="37.125" height="33" fill="white"/>
</clipPath>
</defs>
</svg>
