<svg width="37" height="33" viewBox="0 0 37 33" fill="none" xmlns="http://www.w3.org/2000/svg">
<g clip-path="url(#clip0_115_14)">
<path d="M19.8875 10.2158L21.3714 1.27617C21.4934 0.541406 22.1293 0 22.8745 0C23.3563 0 23.8059 0.225586 24.095 0.612305L25.1806 2.0625H28.5273C29.3431 2.0625 30.1267 2.39121 30.7049 2.97129L31.8611 4.125H35.4583C36.3127 4.125 37 4.81465 37 5.67188V7.21875C37 10.0676 34.7004 12.375 31.8611 12.375H29.8056H28.7778H27.4096L27.0819 14.3408L19.8875 10.2158ZM26.7222 16.5064V30.9375C26.7222 32.0783 25.8036 33 24.6667 33H22.6111C21.4741 33 20.5556 32.0783 20.5556 30.9375V23.5125C19.0139 24.3053 17.2667 24.75 15.4167 24.75C13.5667 24.75 11.8194 24.3053 10.2778 23.5125V30.9375C10.2778 32.0783 9.35921 33 8.22223 33H6.16667C5.02969 33 4.11112 32.0783 4.11112 30.9375V16.1004C2.26112 15.3979 0.80938 13.8252 0.308338 11.8143L0.0642408 10.8152C-0.211975 9.71309 0.456081 8.5916 1.56094 8.31445C2.6658 8.0373 3.77709 8.70762 4.0533 9.81621L4.30382 10.8152C4.52865 11.7305 5.35087 12.375 6.29514 12.375H8.22223H9.25H19.5149L26.7222 16.5064ZM29.8056 5.15625C29.8056 4.88275 29.6973 4.62044 29.5045 4.42705C29.3118 4.23365 29.0504 4.125 28.7778 4.125C28.5052 4.125 28.2438 4.23365 28.051 4.42705C27.8583 4.62044 27.75 4.88275 27.75 5.15625C27.75 5.42975 27.8583 5.69206 28.051 5.88545C28.2438 6.07885 28.5052 6.1875 28.7778 6.1875C29.0504 6.1875 29.3118 6.07885 29.5045 5.88545C29.6973 5.69206 29.8056 5.42975 29.8056 5.15625Z" fill="#003450" fill-opacity="0.47"/>
</g>
<defs>
<clipPath id="clip0_115_14">
<rect width="37" height="33" fill="white"/>
</clipPath>
</defs>
</svg>
