<svg width="33" height="33" viewBox="0 0 33 33" fill="none" xmlns="http://www.w3.org/2000/svg">
<path d="M6.60029 9.07505C6.60029 7.70864 7.70889 6.60005 9.07529 6.60005C10.4417 6.60005 11.5503 7.70864 11.5503 9.07505V14.85H6.60029V9.07505ZM12.3753 22.275C12.3753 19.764 13.3086 17.4694 14.8503 15.7266V9.07505C14.8503 5.88333 12.267 3.30005 9.07529 3.30005C5.88357 3.30005 3.30029 5.88333 3.30029 9.07505V23.925C3.30029 27.1168 5.88357 29.7 9.07529 29.7C10.9986 29.7 12.7001 28.7616 13.752 27.3127C12.8754 25.838 12.3753 24.1158 12.3753 22.275ZM15.7114 25.7504C15.9486 26.199 16.5519 26.2505 16.9128 25.8896L25.8898 16.9125C26.2508 16.5516 26.1992 15.9483 25.7506 15.7111C24.7142 15.1594 23.5334 14.85 22.2753 14.85C18.1761 14.85 14.8503 18.1758 14.8503 22.275C14.8503 23.528 15.1597 24.714 15.7114 25.7504ZM18.6608 27.6375C18.2998 27.9985 18.3514 28.6018 18.8 28.839C19.8364 29.3907 21.0172 29.7 22.2753 29.7C26.3745 29.7 29.7003 26.3743 29.7003 22.275C29.7003 21.0221 29.3909 19.8361 28.8392 18.7997C28.602 18.3511 27.9987 18.2996 27.6378 18.6605L18.6608 27.6375Z" fill="#003450" fill-opacity="0.47"/>
</svg>
