<svg width="33" height="26" viewBox="0 0 33 26" fill="none" xmlns="http://www.w3.org/2000/svg">
<g clip-path="url(#clip0_118_38)">
<path d="M9.9 2.4375C9.9 1.0918 11.0086 0 12.375 0H20.625C21.9914 0 23.1 1.0918 23.1 2.4375V26H18.975V21.9375C18.975 20.5918 17.8664 19.5 16.5 19.5C15.1336 19.5 14.025 20.5918 14.025 21.9375V26H9.9V2.4375ZM2.475 4.875H8.25V26H2.475C1.10859 26 0 24.9082 0 23.5625V16.25H4.125C4.57875 16.25 4.95 15.8844 4.95 15.4375C4.95 14.9906 4.57875 14.625 4.125 14.625H0V11.375H4.125C4.57875 11.375 4.95 11.0094 4.95 10.5625C4.95 10.1156 4.57875 9.75 4.125 9.75H0V7.3125C0 5.9668 1.10859 4.875 2.475 4.875ZM30.525 4.875C31.8914 4.875 33 5.9668 33 7.3125V9.75H28.875C28.4212 9.75 28.05 10.1156 28.05 10.5625C28.05 11.0094 28.4212 11.375 28.875 11.375H33V14.625H28.875C28.4212 14.625 28.05 14.9906 28.05 15.4375C28.05 15.8844 28.4212 16.25 28.875 16.25H33V23.5625C33 24.9082 31.8914 26 30.525 26H24.75V4.875H30.525ZM16.0875 3.25C15.6337 3.25 15.2625 3.61562 15.2625 4.0625V5.28125H14.025C13.5712 5.28125 13.2 5.64687 13.2 6.09375V6.90625C13.2 7.35313 13.5712 7.71875 14.025 7.71875H15.2625V8.9375C15.2625 9.38437 15.6337 9.75 16.0875 9.75H16.9125C17.3662 9.75 17.7375 9.38437 17.7375 8.9375V7.71875H18.975C19.4287 7.71875 19.8 7.35313 19.8 6.90625V6.09375C19.8 5.64687 19.4287 5.28125 18.975 5.28125H17.7375V4.0625C17.7375 3.61562 17.3662 3.25 16.9125 3.25H16.0875Z" fill="#003450" fill-opacity="0.47"/>
</g>
<defs>
<clipPath id="clip0_118_38">
<rect width="33" height="26" fill="white"/>
</clipPath>
</defs>
</svg>
