<svg width="33" height="27" viewBox="0 0 33 27" fill="none" xmlns="http://www.w3.org/2000/svg">
<g clip-path="url(#clip0_118_41)">
<path d="M0 2.53125C0 1.13379 1.10859 0 2.475 0H18.975C20.3414 0 21.45 1.13379 21.45 2.53125V5.0625H24.0642C24.9408 5.0625 25.7812 5.41582 26.4 6.04863L30.3858 10.125C31.0045 10.7578 31.35 11.6174 31.35 12.5139V13.5V15.1875V18.5625C32.2627 18.5625 33 19.3166 33 20.25C33 21.1834 32.2627 21.9375 31.35 21.9375H29.7C29.7 24.7324 27.4828 27 24.75 27C22.0172 27 19.8 24.7324 19.8 21.9375H13.2C13.2 24.7324 10.9828 27 8.25 27C5.51719 27 3.3 24.7324 3.3 21.9375H2.475C1.10859 21.9375 0 20.8037 0 19.4062V2.53125ZM21.45 13.5H28.05V12.5139L24.0642 8.4375H21.45V13.5ZM8.25 24.4688C8.90641 24.4688 9.53594 24.2021 10.0001 23.7274C10.4642 23.2527 10.725 22.6088 10.725 21.9375C10.725 21.2662 10.4642 20.6223 10.0001 20.1476C9.53594 19.6729 8.90641 19.4062 8.25 19.4062C7.59359 19.4062 6.96406 19.6729 6.49991 20.1476C6.03576 20.6223 5.775 21.2662 5.775 21.9375C5.775 22.6088 6.03576 23.2527 6.49991 23.7274C6.96406 24.2021 7.59359 24.4688 8.25 24.4688ZM27.225 21.9375C27.225 21.2662 26.9642 20.6223 26.5001 20.1476C26.0359 19.6729 25.4064 19.4062 24.75 19.4062C24.0936 19.4062 23.4641 19.6729 22.9999 20.1476C22.5358 20.6223 22.275 21.2662 22.275 21.9375C22.275 22.6088 22.5358 23.2527 22.9999 23.7274C23.4641 24.2021 24.0936 24.4688 24.75 24.4688C25.4064 24.4688 26.0359 24.2021 26.5001 23.7274C26.9642 23.2527 27.225 22.6088 27.225 21.9375ZM9.075 4.21875V6.75H6.6C6.14625 6.75 5.775 7.12969 5.775 7.59375V9.28125C5.775 9.74531 6.14625 10.125 6.6 10.125H9.075V12.6562C9.075 13.1203 9.44625 13.5 9.9 13.5H11.55C12.0037 13.5 12.375 13.1203 12.375 12.6562V10.125H14.85C15.3038 10.125 15.675 9.74531 15.675 9.28125V7.59375C15.675 7.12969 15.3038 6.75 14.85 6.75H12.375V4.21875C12.375 3.75469 12.0037 3.375 11.55 3.375H9.9C9.44625 3.375 9.075 3.75469 9.075 4.21875Z" fill="#003450" fill-opacity="0.47"/>
</g>
<defs>
<clipPath id="clip0_118_41">
<rect width="33" height="27" fill="white"/>
</clipPath>
</defs>
</svg>
