<svg width="29" height="33" viewBox="0 0 29 33" fill="none" xmlns="http://www.w3.org/2000/svg">
<g clip-path="url(#clip0_118_35)">
<path d="M14.5 16.5C16.6975 16.5 18.805 15.6308 20.3589 14.0836C21.9128 12.5365 22.7857 10.438 22.7857 8.25C22.7857 6.06196 21.9128 3.96354 20.3589 2.41637C18.805 0.869194 16.6975 0 14.5 0C12.3025 0 10.195 0.869194 8.64111 2.41637C7.08724 3.96354 6.21429 6.06196 6.21429 8.25C6.21429 10.438 7.08724 12.5365 8.64111 14.0836C10.195 15.6308 12.3025 16.5 14.5 16.5ZM8.28571 20.0578C3.49554 21.4564 0 25.865 0 31.0857C0 32.1428 0.860938 33 1.92254 33H27.0775C28.1391 33 29 32.1428 29 31.0857C29 25.865 25.5045 21.4564 20.7143 20.0578V23.332C22.5009 23.7896 23.8214 25.4074 23.8214 27.3281V29.9062C23.8214 30.4734 23.3554 30.9375 22.7857 30.9375H21.75C21.1804 30.9375 20.7143 30.4734 20.7143 29.9062C20.7143 29.3391 21.1804 28.875 21.75 28.875V27.3281C21.75 26.1873 20.8243 25.2656 19.6786 25.2656C18.5328 25.2656 17.6071 26.1873 17.6071 27.3281V28.875C18.1768 28.875 18.6429 29.3391 18.6429 29.9062C18.6429 30.4734 18.1768 30.9375 17.6071 30.9375H16.5714C16.0018 30.9375 15.5357 30.4734 15.5357 29.9062V27.3281C15.5357 25.4074 16.8562 23.7896 18.6429 23.332V19.6518C18.2545 19.6131 17.8596 19.5938 17.4583 19.5938H11.5417C11.1404 19.5938 10.7455 19.6131 10.3571 19.6518V23.867C11.8525 24.3117 12.9464 25.691 12.9464 27.3281C12.9464 29.3197 11.3217 30.9375 9.32143 30.9375C7.32121 30.9375 5.69643 29.3197 5.69643 27.3281C5.69643 25.691 6.7904 24.3117 8.28571 23.867V20.0578ZM9.32143 28.875C9.73346 28.875 10.1286 28.712 10.42 28.4219C10.7113 28.1318 10.875 27.7384 10.875 27.3281C10.875 26.9179 10.7113 26.5244 10.42 26.2343C10.1286 25.9442 9.73346 25.7812 9.32143 25.7812C8.9094 25.7812 8.51424 25.9442 8.22289 26.2343C7.93154 26.5244 7.76786 26.9179 7.76786 27.3281C7.76786 27.7384 7.93154 28.1318 8.22289 28.4219C8.51424 28.712 8.9094 28.875 9.32143 28.875Z" fill="#003450" fill-opacity="0.47"/>
</g>
<defs>
<clipPath id="clip0_118_35">
<rect width="29" height="33" fill="white"/>
</clipPath>
</defs>
</svg>
