<svg width="35" height="33" viewBox="0 0 35 33" fill="none" xmlns="http://www.w3.org/2000/svg">
<path d="M14.5391 3.35762C13.2266 2.51973 11.6172 2.06211 9.96094 2.06211C5.83594 2.06211 2.5 4.81426 2.5 8.21738V8.61699C2.5 9.63535 2.78906 10.6344 3.33594 11.5496L5.17187 14.5854C5.52344 15.159 5.76562 15.7713 5.90625 16.4029L8.77344 29.6674C8.92969 30.3893 9.67969 30.9178 10.5625 30.9436C11.4453 30.9693 12.2344 30.4666 12.4375 29.7576L14.6953 21.9395C15.0156 20.8631 16.1719 20.109 17.5 20.109C18.8281 20.109 19.9844 20.8631 20.2969 21.933L22.5547 29.7512C22.7578 30.4666 23.5469 30.9629 24.4297 30.9371C25.3125 30.9113 26.0625 30.3828 26.2187 29.6609L29.0859 16.3965C29.2266 15.7648 29.4687 15.1525 29.8203 14.5789L31.6562 11.5432C32.2109 10.6344 32.4922 9.62891 32.4922 8.61055V8.4752C32.4922 4.93027 29.0078 2.05566 24.7109 2.05566C22.8281 2.05566 21.0078 2.62285 19.5859 3.64121L19.3359 3.82168L20.8594 4.80137C21.4062 5.14941 21.5 5.80039 21.0781 6.25156C20.6562 6.70273 19.8672 6.78008 19.3203 6.43203L17.4141 5.20742L14.5234 3.35117L14.5391 3.35762Z" fill="#003450" fill-opacity="0.47"/>
</svg>
