<svg width="33" height="27" viewBox="0 0 33 27" fill="none" xmlns="http://www.w3.org/2000/svg">
<path d="M4.95 3.375C4.95 2.4416 5.68734 1.6875 6.6 1.6875H8.25C9.16266 1.6875 9.9 2.4416 9.9 3.375V11.8125V15.1875V23.625C9.9 24.5584 9.16266 25.3125 8.25 25.3125H6.6C5.68734 25.3125 4.95 24.5584 4.95 23.625V20.25H3.3C2.38734 20.25 1.65 19.4959 1.65 18.5625V15.1875C0.737344 15.1875 0 14.4334 0 13.5C0 12.5666 0.737344 11.8125 1.65 11.8125V8.4375C1.65 7.5041 2.38734 6.75 3.3 6.75H4.95V3.375ZM28.05 3.375V6.75H29.7C30.6127 6.75 31.35 7.5041 31.35 8.4375V11.8125C32.2627 11.8125 33 12.5666 33 13.5C33 14.4334 32.2627 15.1875 31.35 15.1875V18.5625C31.35 19.4959 30.6127 20.25 29.7 20.25H28.05V23.625C28.05 24.5584 27.3127 25.3125 26.4 25.3125H24.75C23.8373 25.3125 23.1 24.5584 23.1 23.625V15.1875V11.8125V3.375C23.1 2.4416 23.8373 1.6875 24.75 1.6875H26.4C27.3127 1.6875 28.05 2.4416 28.05 3.375ZM21.45 11.8125V15.1875H11.55V11.8125H21.45Z" fill="#003450" fill-opacity="0.47"/>
</svg>
