<svg width="33" height="29" viewBox="0 0 33 29" fill="none" xmlns="http://www.w3.org/2000/svg">
<g clip-path="url(#clip0_118_14)">
<path d="M31.1552 16.2898C32.1292 16.2898 32.9885 15.4969 32.9885 14.4717C33.0458 13.9619 32.8167 13.5088 32.3583 13.1123L17.7318 0.396484C17.388 0.113281 16.9297 0 16.5286 0C16.1276 0 15.6693 0.0566406 15.2682 0.453125L0.572917 13.1123C0.171875 13.5088 0 13.9619 0 14.4717C0 15.4912 0.802083 16.2898 1.83333 16.2898H3.66667V25.375C3.66667 27.3744 5.31094 29 7.33333 29H25.6896C27.7234 29 29.3677 27.3688 29.3563 25.358L29.3161 16.2842H31.1495L31.1552 16.2898ZM14.6667 11.7812C14.6667 11.2828 15.0792 10.875 15.5833 10.875H17.4167C17.9208 10.875 18.3333 11.2828 18.3333 11.7812V14.5H21.0833C21.5875 14.5 22 14.9078 22 15.4062V17.2188C22 17.7172 21.5875 18.125 21.0833 18.125H18.3333V20.8438C18.3333 21.3422 17.9208 21.75 17.4167 21.75H15.5833C15.0792 21.75 14.6667 21.3422 14.6667 20.8438V18.125H11.9167C11.4125 18.125 11 17.7172 11 17.2188V15.4062C11 14.9078 11.4125 14.5 11.9167 14.5H14.6667V11.7812Z" fill="#003450" fill-opacity="0.47"/>
</g>
<defs>
<clipPath id="clip0_118_14">
<rect width="33" height="29" fill="white"/>
</clipPath>
</defs>
</svg>
