<svg width="33" height="33" viewBox="0 0 33 33" fill="none" xmlns="http://www.w3.org/2000/svg">
<g clip-path="url(#clip0_118_26)">
<path d="M22.3454 0.386719C21.7589 1.0957 20.6245 2.72637 20.6245 4.64062C20.6245 7.21875 21.6106 8.20488 23.2026 9.79688C24.7946 11.3889 25.7807 12.375 28.3589 12.375C30.2731 12.375 31.9038 11.2406 32.6128 10.6541C32.8706 10.4414 32.9995 10.1256 32.9995 9.79688C32.9995 9.46816 32.8706 9.15234 32.6128 8.94609C31.878 8.35957 30.1442 7.21875 27.8432 7.21875C25.7807 7.21875 25.2651 7.73438 25.2651 7.73438C25.2651 7.73438 25.7807 7.21875 25.7807 5.15625C25.7807 2.85527 24.6399 1.12148 24.0534 0.386719C23.8471 0.128906 23.5313 0 23.2026 0C22.8739 0 22.5581 0.128906 22.3454 0.386719ZM15.7647 8.76562C13.1866 8.76562 10.7954 9.93223 9.20983 11.8723L13.1092 15.7717C13.5089 16.1713 13.5089 16.8287 13.1092 17.2283C12.7096 17.6279 12.0522 17.6279 11.6526 17.2283L8.08834 13.6641V13.6705L0.141275 30.8021C-0.129429 31.3887 -0.00696763 32.0848 0.45065 32.5488C0.908267 33.0129 1.60436 33.1289 2.19733 32.8582L10.8792 28.8363L7.52116 25.4783C7.12155 25.0787 7.12155 24.4213 7.52116 24.0217C7.92077 23.6221 8.57819 23.6221 8.9778 24.0217L12.8708 27.9082L19.329 24.9176C22.3196 23.5318 24.2403 20.5348 24.2403 17.2348C24.2339 12.5555 20.444 8.76562 15.7647 8.76562Z" fill="#003450" fill-opacity="0.47"/>
</g>
<defs>
<clipPath id="clip0_118_26">
<rect width="33" height="33" fill="white"/>
</clipPath>
</defs>
</svg>
