<svg width="33" height="33" viewBox="0 0 33 33" fill="none" xmlns="http://www.w3.org/2000/svg">
<path d="M17.5312 6.18747C12.4652 6.18747 8.1791 9.5068 6.72246 14.083C8.88809 12.9873 11.3309 12.375 13.9219 12.375H19.5938C20.1609 12.375 20.625 12.839 20.625 13.4062C20.625 13.9734 20.1609 14.4375 19.5938 14.4375H18.5625H13.9219C12.852 14.4375 11.8143 14.5599 10.8088 14.7855C9.13945 15.1658 7.59258 15.8425 6.20684 16.7642C2.46855 19.2586 0 23.5189 0 28.3593V29.3906C0 30.2478 0.689648 30.9375 1.54688 30.9375C2.4041 30.9375 3.09375 30.2478 3.09375 29.3906V28.3593C3.09375 25.2205 4.42793 22.3974 6.56133 20.4187C7.8375 25.2849 12.2654 28.875 17.5312 28.875H17.5957C26.11 28.8299 33 20.4381 33 10.0933C33 7.34763 32.5166 4.73727 31.64 2.38473C31.4725 1.94001 30.8215 1.95934 30.5959 2.37829C29.3842 4.64704 26.9865 6.18747 24.2344 6.18747H17.5312Z" fill="#003450" fill-opacity="0.47"/>
</svg>
