<svg width="33" height="33" viewBox="0 0 33 33" fill="none" xmlns="http://www.w3.org/2000/svg">
<g clip-path="url(#clip0_118_2)">
<path d="M3.71895 12.4395L4.3248 13.4965C4.85977 14.4311 5.73633 15.1207 6.77402 15.4172L10.5059 16.4807C11.6145 16.7965 12.375 17.8084 12.375 18.9621V21.5338C12.375 22.2428 12.7746 22.8873 13.4062 23.2031C14.0379 23.5189 14.4375 24.1635 14.4375 24.8725V27.3861C14.4375 28.3916 15.3979 29.1199 16.3646 28.8428C17.4023 28.5463 18.208 27.7148 18.4723 26.6643L18.6527 25.9424C18.9234 24.8531 19.6324 23.9186 20.6057 23.3643L21.1277 23.0678C22.0945 22.5199 22.6875 21.4887 22.6875 20.3801V19.8451C22.6875 19.0266 22.3588 18.2402 21.7787 17.6602L21.5273 17.4088C20.9473 16.8287 20.1609 16.5 19.3424 16.5H16.5645C15.849 16.5 15.14 16.3131 14.5148 15.9586L12.2912 14.6889C12.0141 14.5277 11.8014 14.2699 11.6982 13.967C11.492 13.3482 11.7691 12.6779 12.3557 12.3879L12.7359 12.1945C13.1613 11.9818 13.6576 11.9432 14.1088 12.0979L15.6041 12.5941C16.1326 12.7682 16.7127 12.5684 17.0156 12.1107C17.3186 11.6596 17.2863 11.0602 16.9383 10.6412L16.0617 9.59062C15.4172 8.81719 15.4236 7.68926 16.0811 6.92871L17.093 5.74922C17.6602 5.08535 17.7504 4.13789 17.3186 3.38379L17.1639 3.11309C16.9383 3.1002 16.7191 3.09375 16.4936 3.09375C10.5123 3.09375 5.43984 7.01895 3.71895 12.4395ZM29.9062 16.5C29.9062 14.1281 29.2875 11.898 28.2047 9.95801L26.5547 10.6219C25.5428 11.0279 25.0207 12.1559 25.3623 13.1871L26.4516 16.4549C26.6771 17.1252 27.225 17.6344 27.9082 17.802L29.7838 18.2725C29.8611 17.6924 29.8998 17.0994 29.8998 16.5H29.9062ZM0 16.5C0 12.1239 1.73839 7.92709 4.83274 4.83274C7.92709 1.73839 12.1239 0 16.5 0C20.8761 0 25.0729 1.73839 28.1673 4.83274C31.2616 7.92709 33 12.1239 33 16.5C33 20.8761 31.2616 25.0729 28.1673 28.1673C25.0729 31.2616 20.8761 33 16.5 33C12.1239 33 7.92709 31.2616 4.83274 28.1673C1.73839 25.0729 0 20.8761 0 16.5Z" fill="#003450" fill-opacity="0.47"/>
</g>
<defs>
<clipPath id="clip0_118_2">
<rect width="33" height="33" fill="white"/>
</clipPath>
</defs>
</svg>
