<svg width="25" height="33" viewBox="0 0 25 33" fill="none" xmlns="http://www.w3.org/2000/svg">
<g clip-path="url(#clip0_117_17)">
<path d="M14.043 32.175C17.3828 28.0371 25 18.0082 25 12.375C25 5.54297 19.401 0 12.5 0C5.59896 0 0 5.54297 0 12.375C0 18.0082 7.61719 28.0371 10.957 32.175C11.7578 33.1611 13.2422 33.1611 14.043 32.175ZM12.5 8.25C13.6051 8.25 14.6649 8.6846 15.4463 9.45818C16.2277 10.2318 16.6667 11.281 16.6667 12.375C16.6667 13.469 16.2277 14.5182 15.4463 15.2918C14.6649 16.0654 13.6051 16.5 12.5 16.5C11.3949 16.5 10.3351 16.0654 9.55372 15.2918C8.77232 14.5182 8.33333 13.469 8.33333 12.375C8.33333 11.281 8.77232 10.2318 9.55372 9.45818C10.3351 8.6846 11.3949 8.25 12.5 8.25Z" fill="#003450" fill-opacity="0.47"/>
</g>
<defs>
<clipPath id="clip0_117_17">
<rect width="25" height="33" fill="white"/>
</clipPath>
</defs>
</svg>
