<svg width="34" height="26" viewBox="0 0 34 26" fill="none" xmlns="http://www.w3.org/2000/svg">
<path d="M0 17.0625C0 21.0996 3.42656 24.375 7.65 24.375H27.2C30.9559 24.375 34 21.4652 34 17.875C34 14.7316 31.6625 12.1063 28.56 11.507C28.7778 10.9637 28.9 10.3695 28.9 9.75C28.9 7.05859 26.6156 4.875 23.8 4.875C22.7534 4.875 21.7759 5.17969 20.9684 5.69766C19.4969 3.26016 16.7503 1.625 13.6 1.625C8.90375 1.625 5.1 5.26094 5.1 9.75C5.1 9.88711 5.10531 10.0242 5.11062 10.1613C2.13562 11.1617 0 13.8734 0 17.0625Z" fill="#003450" fill-opacity="0.47"/>
</svg>
