<svg width="37" height="33" viewBox="0 0 37 33" fill="none" xmlns="http://www.w3.org/2000/svg">
<g clip-path="url(#clip0_175_107)">
<path d="M36.3962 3.51909C37.1991 2.71343 37.1991 1.40503 36.3962 0.599365C35.5932 -0.206299 34.2892 -0.206299 33.4863 0.599365L21.1529 12.9744L18.924 10.7378C18.6542 10.4671 18.2816 10.3125 17.8962 10.3125C17.0932 10.3125 16.4444 10.9634 16.4444 11.7691V13.6447L23.4012 20.625H25.2705C26.0734 20.625 26.7222 19.974 26.7222 19.1683C26.7222 18.7816 26.5681 18.4078 26.2983 18.1371L24.0693 15.9005L36.4026 3.52554L36.3962 3.51909ZM21.9109 22.7777L14.299 15.14C11.5561 14.9015 8.82604 15.8941 6.86042 17.8664L6.34653 18.382C4.91406 19.8193 4.11111 21.7658 4.11111 23.796C4.11111 24.2343 4.56719 24.5179 4.95903 24.3246L8.24149 22.681C8.56267 22.5199 8.85174 22.9453 8.58837 23.1902L0.468924 30.5121C0.173438 30.7828 0 31.1695 0 31.5755C0 32.3619 0.635937 33 1.41962 33H12.5517C15.0441 33 17.4273 32.0074 19.1937 30.2414C21.1594 28.2691 22.1422 25.5298 21.9109 22.7777Z" fill="#003450" fill-opacity="0.47"/>
</g>
<defs>
<clipPath id="clip0_175_107">
<rect width="37" height="33" fill="white"/>
</clipPath>
</defs>
</svg>
