<svg width="33" height="33" viewBox="0 0 33 33" fill="none" xmlns="http://www.w3.org/2000/svg">
<g clip-path="url(#clip0_175_80)">
<path d="M6.1875 4.98223C6.1875 4.51172 6.56777 4.125 7.04473 4.125C7.27031 4.125 7.48945 4.21523 7.65059 4.37637L8.61094 5.33672C8.37891 5.9168 8.25 6.55488 8.25 7.21875C8.25 8.50137 8.71406 9.66797 9.4875 10.5703C9.1459 11.1633 9.22969 11.9303 9.73242 12.4395C10.3383 13.0453 11.318 13.0453 11.9174 12.4395L18.627 5.73633C19.2328 5.13047 19.2328 4.15078 18.627 3.55137C18.1178 3.04219 17.3508 2.96484 16.7578 3.30645C15.8555 2.52656 14.6889 2.0625 13.4062 2.0625C12.7424 2.0625 12.1043 2.19141 11.5242 2.41699L10.5639 1.45664C9.6293 0.52207 8.35957 0 7.04473 0C4.29258 0 2.0625 2.23008 2.0625 4.98223V16.5C0.92168 16.5 0 17.4217 0 18.5625C0 19.7033 0.92168 20.625 2.0625 20.625H30.9375C32.0783 20.625 33 19.7033 33 18.5625C33 17.4217 32.0783 16.5 30.9375 16.5H6.1875V4.98223ZM2.0625 22.6875V23.7188C2.0625 25.5492 2.86172 27.1992 4.125 28.3336V30.9375C4.125 32.0783 5.04668 33 6.1875 33C7.32832 33 8.25 32.0783 8.25 30.9375V29.9062H24.75V30.9375C24.75 32.0783 25.6717 33 26.8125 33C27.9533 33 28.875 32.0783 28.875 30.9375V28.3336C30.1383 27.1992 30.9375 25.5557 30.9375 23.7188V22.6875H2.0625Z" fill="#003450" fill-opacity="0.47"/>
</g>
<defs>
<clipPath id="clip0_175_80">
<rect width="33" height="33" fill="white"/>
</clipPath>
</defs>
</svg>
