<svg width="33" height="33" viewBox="0 0 33 33" fill="none" xmlns="http://www.w3.org/2000/svg">
<g clip-path="url(#clip0_175_98)">
<path d="M25.6717 0.219127C24.6533 -0.290053 23.4158 0.122447 22.9066 1.14081C22.3975 2.15917 22.81 3.39022 23.8219 3.90585L23.8477 3.91874C23.8734 3.93163 23.9186 3.95741 23.983 3.99608C24.1119 4.07342 24.3053 4.18944 24.5437 4.35702C25.0271 4.69217 25.6781 5.2078 26.3291 5.91678C27.6182 7.30897 28.875 9.41014 28.875 12.375C28.875 13.5158 29.7967 14.4375 30.9375 14.4375C32.0783 14.4375 33 13.5158 33 12.375C33 8.12108 31.1631 5.066 29.3584 3.11307C28.4625 2.13983 27.5666 1.43085 26.8963 0.966783C26.5547 0.728307 26.2711 0.554283 26.0584 0.431822C25.9553 0.367369 25.865 0.322252 25.8006 0.290025C25.7684 0.270689 25.7426 0.257799 25.7232 0.244908L25.6975 0.232017L25.6846 0.225572C25.6846 0.225572 25.6846 0.225572 25.6781 0.225572L24.75 2.06249L25.6717 0.219127ZM8.29512 14.6631C8.69473 11.0537 11.7563 8.24999 15.4688 8.24999C19.4584 8.24999 22.6875 11.4791 22.6875 15.4687C22.6875 17.3572 21.9656 19.0717 20.7797 20.3607C19.684 21.5467 18.5625 23.2676 18.5625 25.3881V25.7812C18.5625 27.4892 17.1768 28.875 15.4688 28.875C14.3279 28.875 13.4062 29.7967 13.4062 30.9375C13.4062 32.0783 14.3279 33 15.4688 33C19.4584 33 22.6875 29.7709 22.6875 25.7812V25.3881C22.6875 24.7564 23.0355 23.9894 23.809 23.1516C25.6717 21.1342 26.8125 18.4336 26.8125 15.4687C26.8125 9.20389 21.7336 4.12499 15.4688 4.12499C9.6293 4.12499 4.82109 8.54003 4.1959 14.2119C4.07344 15.3463 4.88555 16.3646 6.01992 16.4871C7.1543 16.6096 8.17266 15.7974 8.29512 14.6631ZM2.0625 33C2.60951 33 3.13411 32.7827 3.52091 32.3959C3.9077 32.0091 4.125 31.4845 4.125 30.9375C4.125 30.3905 3.9077 29.8659 3.52091 29.4791C3.13411 29.0923 2.60951 28.875 2.0625 28.875C1.51549 28.875 0.990886 29.0923 0.604092 29.4791C0.217299 29.8659 0 30.3905 0 30.9375C0 31.4845 0.217299 32.0091 0.604092 32.3959C0.990886 32.7827 1.51549 33 2.0625 33ZM12.375 22.6875C12.375 22.1405 12.1577 21.6159 11.7709 21.2291C11.3841 20.8423 10.8595 20.625 10.3125 20.625C9.76549 20.625 9.24089 20.8423 8.85409 21.2291C8.4673 21.6159 8.25 22.1405 8.25 22.6875C8.25 23.2345 8.4673 23.7591 8.85409 24.1459C9.24089 24.5327 9.76549 24.75 10.3125 24.75C10.8595 24.75 11.3841 24.5327 11.7709 24.1459C12.1577 23.7591 12.375 23.2345 12.375 22.6875ZM2.66836 23.2933C1.8627 24.099 1.8627 25.4074 2.66836 26.2131L6.79336 30.3381C7.59902 31.1437 8.90742 31.1437 9.71309 30.3381C10.5188 29.5324 10.5188 28.224 9.71309 27.4183L5.58809 23.2933C4.78242 22.4877 3.47402 22.4877 2.66836 23.2933ZM13.4062 15.4687C13.4062 14.3279 14.3279 13.4062 15.4688 13.4062C16.6096 13.4062 17.5312 14.3279 17.5312 15.4687C17.5312 16.326 18.2209 17.0156 19.0781 17.0156C19.9354 17.0156 20.625 16.326 20.625 15.4687C20.625 12.6199 18.3176 10.3125 15.4688 10.3125C12.6199 10.3125 10.3125 12.6199 10.3125 15.4687C10.3125 16.326 11.0021 17.0156 11.8594 17.0156C12.7166 17.0156 13.4062 16.326 13.4062 15.4687Z" fill="#003450" fill-opacity="0.47"/>
</g>
<defs>
<clipPath id="clip0_175_98">
<rect width="33" height="33" fill="white"/>
</clipPath>
</defs>
</svg>
