<svg width="33" height="33" viewBox="0 0 33 33" fill="none" xmlns="http://www.w3.org/2000/svg">
<g clip-path="url(#clip0_175_89)">
<path d="M13.4062 6.1875C14.2268 6.1875 15.0137 5.86155 15.5939 5.28136C16.1741 4.70117 16.5 3.91426 16.5 3.09375C16.5 2.27324 16.1741 1.48633 15.5939 0.906138C15.0137 0.325948 14.2268 0 13.4062 0C12.5857 0 11.7988 0.325948 11.2186 0.906138C10.6384 1.48633 10.3125 2.27324 10.3125 3.09375C10.3125 3.91426 10.6384 4.70117 11.2186 5.28136C11.7988 5.86155 12.5857 6.1875 13.4062 6.1875ZM20.625 16.5C21.719 16.5 22.7682 16.0654 23.5418 15.2918C24.3154 14.5182 24.75 13.469 24.75 12.375C24.75 11.281 24.3154 10.2318 23.5418 9.45818C22.7682 8.6846 21.719 8.25 20.625 8.25C19.531 8.25 18.4818 8.6846 17.7082 9.45818C16.9346 10.2318 16.5 11.281 16.5 12.375C16.5 13.469 16.9346 14.5182 17.7082 15.2918C18.4818 16.0654 19.531 16.5 20.625 16.5ZM26.8125 2.0625C26.8125 1.51549 26.5952 0.990886 26.2084 0.604092C25.8216 0.217299 25.297 0 24.75 0C24.203 0 23.6784 0.217299 23.2916 0.604092C22.9048 0.990886 22.6875 1.51549 22.6875 2.0625C22.6875 2.60951 22.9048 3.13411 23.2916 3.52091C23.6784 3.9077 24.203 4.125 24.75 4.125C25.297 4.125 25.8216 3.9077 26.2084 3.52091C26.5952 3.13411 26.8125 2.60951 26.8125 2.0625ZM26.8125 12.375C26.8125 14.1539 26.0584 15.7588 24.8531 16.8932C27.2057 17.7697 28.875 20.032 28.875 22.6875C28.875 26.1035 26.1035 28.875 22.6875 28.875H10.3125C6.89648 28.875 4.125 26.1035 4.125 22.6875C4.125 19.2715 6.89648 16.5 10.3125 16.5H16.0102C15.0305 15.4043 14.4375 13.9605 14.4375 12.375H6.1875C2.77148 12.375 0 15.1465 0 18.5625V26.8125C0 30.2285 2.77148 33 6.1875 33H26.8125C30.2285 33 33 30.2285 33 26.8125V18.5625C33 15.1465 30.2285 12.375 26.8125 12.375ZM10.3125 18.5625C8.0373 18.5625 6.1875 20.4123 6.1875 22.6875C6.1875 24.9627 8.0373 26.8125 10.3125 26.8125H22.6875C24.9627 26.8125 26.8125 24.9627 26.8125 22.6875C26.8125 20.4123 24.9627 18.5625 22.6875 18.5625H20.625H10.3125Z" fill="#003450" fill-opacity="0.47"/>
</g>
<defs>
<clipPath id="clip0_175_89">
<rect width="33" height="33" fill="white"/>
</clipPath>
</defs>
</svg>
