<svg width="37" height="33" viewBox="0 0 37 33" fill="none" xmlns="http://www.w3.org/2000/svg">
<g clip-path="url(#clip0_176_110)">
<path d="M4.11111 9.28125C4.11111 7.57324 5.49219 6.1875 7.19444 6.1875C8.8967 6.1875 10.2778 7.57324 10.2778 9.28125V16.5H4.11111V9.28125ZM0 9.28125V23.7188C0 27.7084 3.21823 30.9375 7.19444 30.9375C11.1707 30.9375 14.3889 27.7084 14.3889 23.7188V12.2203C14.5045 13.4514 14.9156 14.6695 15.6608 15.7523L23.9151 27.8244C26.1955 31.1566 30.6792 31.9688 33.9359 29.6355C37.1927 27.3023 37.9828 22.7068 35.7024 19.3746L27.4481 7.30254C25.1677 3.96387 20.6776 3.1582 17.4273 5.49141C15.6286 6.78047 14.5816 8.76562 14.3889 10.841V9.28125C14.3889 5.2916 11.1707 2.0625 7.19444 2.0625C3.21823 2.0625 0 5.2916 0 9.28125ZM19.0524 13.4191C18.0247 11.9174 18.4101 9.85488 19.8168 8.84297C21.1786 7.86973 23.0608 8.1791 24.0564 9.6293L28.3602 15.9199L23.2278 19.5293L19.0524 13.4191ZM31.5399 26.2775C31.4885 26.3162 31.4372 26.3484 31.3858 26.3807L31.6427 26.2002C31.6106 26.226 31.5785 26.2518 31.5399 26.2775Z" fill="#003450" fill-opacity="0.47"/>
</g>
<defs>
<clipPath id="clip0_176_110">
<rect width="37" height="33" fill="white"/>
</clipPath>
</defs>
</svg>
