<svg width="33" height="33" viewBox="0 0 33 33" fill="none" xmlns="http://www.w3.org/2000/svg">
<g clip-path="url(#clip0_175_86)">
<path d="M16.5 12.375L13.9541 9.8291C14.2699 9.01699 14.4375 8.14043 14.4375 7.21875C14.4375 3.2291 11.2084 0 7.21875 0C3.2291 0 0 3.2291 0 7.21875C0 11.2084 3.2291 14.4375 7.21875 14.4375C8.14043 14.4375 9.01699 14.2635 9.8291 13.9541L12.375 16.5L9.8291 19.0459C9.01699 18.7301 8.14043 18.5625 7.21875 18.5625C3.2291 18.5625 0 21.7916 0 25.7812C0 29.7709 3.2291 33 7.21875 33C11.2084 33 14.4375 29.7709 14.4375 25.7812C14.4375 24.8596 14.2635 23.983 13.9541 23.1709L32.175 4.95C32.6326 4.49238 32.6326 3.75762 32.175 3.3C30.351 1.47598 27.399 1.47598 25.575 3.3L16.5 12.375ZM17.9566 22.0816L25.575 29.7C27.399 31.524 30.351 31.524 32.175 29.7C32.6326 29.2424 32.6326 28.5076 32.175 28.05L22.0816 17.9566L17.9566 22.0816ZM4.125 7.21875C4.125 6.81247 4.20502 6.41017 4.3605 6.03482C4.51597 5.65947 4.74386 5.31842 5.03114 5.03114C5.31842 4.74386 5.65947 4.51597 6.03482 4.3605C6.41017 4.20502 6.81247 4.125 7.21875 4.125C7.62503 4.125 8.02732 4.20502 8.40268 4.3605C8.77803 4.51597 9.11908 4.74386 9.40636 5.03114C9.69364 5.31842 9.92153 5.65947 10.077 6.03482C10.2325 6.41017 10.3125 6.81247 10.3125 7.21875C10.3125 7.62503 10.2325 8.02733 10.077 8.40268C9.92153 8.77803 9.69364 9.11908 9.40636 9.40636C9.11908 9.69364 8.77803 9.92153 8.40268 10.077C8.02732 10.2325 7.62503 10.3125 7.21875 10.3125C6.81247 10.3125 6.41017 10.2325 6.03482 10.077C5.65947 9.92153 5.31842 9.69364 5.03114 9.40636C4.74386 9.11908 4.51597 8.77803 4.3605 8.40268C4.20502 8.02733 4.125 7.62503 4.125 7.21875ZM7.21875 22.6875C7.62503 22.6875 8.02732 22.7675 8.40268 22.923C8.77803 23.0785 9.11908 23.3064 9.40636 23.5936C9.69364 23.8809 9.92153 24.222 10.077 24.5973C10.2325 24.9727 10.3125 25.375 10.3125 25.7812C10.3125 26.1875 10.2325 26.5898 10.077 26.9652C9.92153 27.3405 9.69364 27.6816 9.40636 27.9689C9.11908 28.2561 8.77803 28.484 8.40268 28.6395C8.02732 28.795 7.62503 28.875 7.21875 28.875C6.81247 28.875 6.41017 28.795 6.03482 28.6395C5.65947 28.484 5.31842 28.2561 5.03114 27.9689C4.74386 27.6816 4.51597 27.3405 4.3605 26.9652C4.20502 26.5898 4.125 26.1875 4.125 25.7812C4.125 25.375 4.20502 24.9727 4.3605 24.5973C4.51597 24.222 4.74386 23.8809 5.03114 23.5936C5.31842 23.3064 5.65947 23.0785 6.03482 22.923C6.41017 22.7675 6.81247 22.6875 7.21875 22.6875Z" fill="#003450" fill-opacity="0.47"/>
</g>
<defs>
<clipPath id="clip0_175_86">
<rect width="33" height="33" fill="white"/>
</clipPath>
</defs>
</svg>
