<svg width="33" height="33" viewBox="0 0 33 33" fill="none" xmlns="http://www.w3.org/2000/svg">
<path d="M14.5987 5.98765C15.5204 8.75269 14.5794 11.5435 12.4976 12.2267C10.4157 12.9099 7.97939 11.2212 7.05772 8.4562C6.13604 5.69117 7.07705 2.90035 9.15889 2.21714C11.2407 1.53394 13.6771 3.22261 14.5987 5.98765ZM6.47119 12.8003C7.68936 14.8886 7.39287 17.3185 5.81377 18.2209C4.23467 19.1232 1.96592 18.1628 0.7542 16.0746C-0.457519 13.9863 -0.173925 11.5564 1.40518 10.6541C2.98428 9.75171 5.25303 10.7121 6.46475 12.8003H6.47119ZM4.46025 25.8585C7.8376 16.7513 13.8382 14.4375 16.5001 14.4375C19.162 14.4375 25.1626 16.7513 28.5399 25.8585C28.772 26.4837 28.8751 27.1541 28.8751 27.8244V27.9275C28.8751 29.5904 27.528 30.9375 25.8651 30.9375C25.1239 30.9375 24.3892 30.8472 23.6737 30.6667L18.0019 29.2488C17.0157 29.0039 15.9845 29.0039 14.9983 29.2488L9.32647 30.6667C8.61104 30.8472 7.87627 30.9375 7.13506 30.9375C5.47217 30.9375 4.1251 29.5904 4.1251 27.9275V27.8244C4.1251 27.1541 4.22822 26.4837 4.46025 25.8585ZM27.1864 18.2209C25.6073 17.3185 25.3108 14.8886 26.529 12.8003C27.7472 10.7121 30.0095 9.75171 31.5886 10.6541C33.1677 11.5564 33.4642 13.9863 32.246 16.0746C31.0278 18.1628 28.7655 19.1232 27.1864 18.2209ZM19.987 12.2267C17.9052 11.5435 16.9642 8.75269 17.8858 5.98765C18.8075 3.22261 21.2438 1.53394 23.3257 2.21714C25.4075 2.90035 26.3485 5.69117 25.4269 8.4562C24.5052 11.2212 22.0688 12.9099 19.987 12.2267Z" fill="#003450" fill-opacity="0.47"/>
</svg>
