<svg width="33" height="33" viewBox="0 0 33 33" fill="none" xmlns="http://www.w3.org/2000/svg">
<g clip-path="url(#clip0_175_92)">
<path d="M17.7377 10.2158L19.0612 1.27617C19.17 0.541406 19.7372 0 20.4018 0C20.8315 0 21.2325 0.225586 21.4903 0.612305L22.4586 2.0625H25.4434C26.1711 2.0625 26.87 2.39121 27.3856 2.97129L28.4169 4.125H31.6252C32.3872 4.125 33.0002 4.81465 33.0002 5.67188V7.21875C33.0002 10.0676 30.9492 12.375 28.4169 12.375H26.5836H25.6669H24.4466L24.1544 14.3408L17.7377 10.2158ZM23.8336 16.5064V30.9375C23.8336 32.0783 23.0143 33 22.0002 33H20.1669C19.1528 33 18.3335 32.0783 18.3335 30.9375V23.5125C16.9585 24.3053 15.4002 24.75 13.7502 24.75C12.1002 24.75 10.5419 24.3053 9.16688 23.5125V30.9375C9.16688 32.0783 8.34761 33 7.33355 33H5.50022C4.48615 33 3.66688 32.0783 3.66688 30.9375V16.1004C2.01688 15.3979 0.72209 13.8252 0.275215 11.8143L0.057507 10.8152C-0.188847 9.71309 0.406986 8.5916 1.3924 8.31445C2.37782 8.0373 3.36897 8.70762 3.61532 9.81621L3.83876 10.8152C4.03928 11.7305 4.77261 12.375 5.6148 12.375H7.33355H8.25022H17.4054L23.8336 16.5064ZM26.5836 5.15625C26.5836 4.88275 26.487 4.62044 26.3151 4.42705C26.1432 4.23365 25.91 4.125 25.6669 4.125C25.4238 4.125 25.1906 4.23365 25.0187 4.42705C24.8468 4.62044 24.7502 4.88275 24.7502 5.15625C24.7502 5.42975 24.8468 5.69206 25.0187 5.88545C25.1906 6.07885 25.4238 6.1875 25.6669 6.1875C25.91 6.1875 26.1432 6.07885 26.3151 5.88545C26.487 5.69206 26.5836 5.42975 26.5836 5.15625Z" fill="#003450" fill-opacity="0.47"/>
</g>
<defs>
<clipPath id="clip0_175_92">
<rect width="33" height="33" fill="white"/>
</clipPath>
</defs>
</svg>
