<svg width="33" height="30" viewBox="0 0 33 30" fill="none" xmlns="http://www.w3.org/2000/svg">
<g clip-path="url(#clip0_118_47)">
<path d="M17.7377 9.28711L19.0612 1.16016C19.17 0.492187 19.7372 0 20.4018 0C20.8315 0 21.2325 0.205078 21.4903 0.556641L22.4586 1.875H25.4434C26.1711 1.875 26.87 2.17383 27.3856 2.70117L28.4169 3.75H31.6252C32.3872 3.75 33.0002 4.37695 33.0002 5.15625V6.5625C33.0002 9.15234 30.9492 11.25 28.4169 11.25H26.5836H25.6669H24.4466L24.1544 13.0371L17.7377 9.28711ZM23.8336 15.0059V28.125C23.8336 29.1621 23.0143 30 22.0002 30H20.1669C19.1528 30 18.3335 29.1621 18.3335 28.125V21.375C16.9585 22.0957 15.4002 22.5 13.7502 22.5C12.1002 22.5 10.5419 22.0957 9.16688 21.375V28.125C9.16688 29.1621 8.34761 30 7.33355 30H5.50022C4.48615 30 3.66688 29.1621 3.66688 28.125V14.6367C2.01688 13.998 0.72209 12.5684 0.275215 10.7402L0.057507 9.83203C-0.188847 8.83008 0.406986 7.81055 1.3924 7.55859C2.37782 7.30664 3.36897 7.91602 3.61532 8.92383L3.83876 9.83203C4.03928 10.6641 4.77261 11.25 5.6148 11.25H7.33355H8.25022H17.4054L23.8336 15.0059ZM26.5836 4.6875C26.5836 4.43886 26.487 4.2004 26.3151 4.02459C26.1432 3.84877 25.91 3.75 25.6669 3.75C25.4238 3.75 25.1906 3.84877 25.0187 4.02459C24.8468 4.2004 24.7502 4.43886 24.7502 4.6875C24.7502 4.93614 24.8468 5.1746 25.0187 5.35041C25.1906 5.52623 25.4238 5.625 25.6669 5.625C25.91 5.625 26.1432 5.52623 26.3151 5.35041C26.487 5.1746 26.5836 4.93614 26.5836 4.6875Z" fill="#003450" fill-opacity="0.47"/>
</g>
<defs>
<clipPath id="clip0_118_47">
<rect width="33" height="30" fill="white"/>
</clipPath>
</defs>
</svg>
